# xmcd CD database file
#
# Track frame offsets:
#	150
#	18065
#	35780
#	51410
#	73475
#	90052
#	104200
#	115772
#	136167
#	157632
#	174972
#
# Disc length: 2539 seconds
#
# Revision: 0
# Processed by: cddbd v1.5.2PL0 Copyright (c) Steve Scherf et al.
# Submitted via: CDex 1.51
#
DISCID=8809e90b
DTITLE=Joyce Mere - I Don't Want Another Heartache
DYEAR=2001
DGENRE=Country
TTITLE0=I Don't Want Another Heartache
TTITLE1=St Alban's Cherokee
TTITLE2=Four Wheeler
TTITLE3=Letting Go
TTITLE4=Take You Home
TTITLE5=Heaven Knows
TTITLE6=Inside Your Heart
TTITLE7=Be There Today
TTITLE8=Never Really Mine
TTITLE9=Heart In Pieces
TTITLE10=Today's Heartache
EXTD=YEAR: 2001
EXTT0=
EXTT1=
EXTT2=
EXTT3=
EXTT4=
EXTT5=
EXTT6=
EXTT7=
EXTT8=
EXTT9=
EXTT10=
PLAYORDER=
